<svg width="1600" height="900" viewBox="0 0 1600 900" fill="none" xmlns="http://www.w3.org/2000/svg">
  <defs>
    <linearGradient id="bg" x1="0" y1="0" x2="1" y2="1">
      <stop offset="0%" stop-color="#7F1D1D"/>
      <stop offset="100%" stop-color="#991B1B"/>
    </linearGradient>
  </defs>
  <rect width="1600" height="900" fill="url(#bg)"/>
  <circle cx="800" cy="340" r="180" fill="#F59E0B" fill-opacity="0.35"/>
  <g fill="#FDE68A">
    <circle cx="500" cy="420" r="34"/>
    <circle cx="640" cy="380" r="34"/>
    <circle cx="800" cy="360" r="38"/>
    <circle cx="960" cy="380" r="34"/>
    <circle cx="1100" cy="420" r="34"/>
  </g>
  <g stroke="#FDE68A" stroke-width="18" stroke-linecap="round" opacity="0.95">
    <path d="M430 520C470 470 530 470 570 520"/>
    <path d="M570 520C610 470 670 470 710 520"/>
    <path d="M710 520C750 465 850 465 890 520"/>
    <path d="M890 520C930 470 990 470 1030 520"/>
    <path d="M1030 520C1070 470 1130 470 1170 520"/>
  </g>
  <rect x="380" y="610" width="840" height="90" rx="45" fill="#FDE68A" fill-opacity="0.25"/>
  <g opacity="0.25" fill="#FCA5A5">
    <rect x="150" y="180" width="220" height="16" rx="8"/>
    <rect x="1230" y="700" width="240" height="16" rx="8"/>
  </g>
</svg>
