<svg width="1600" height="900" viewBox="0 0 1600 900" fill="none" xmlns="http://www.w3.org/2000/svg">
  <defs>
    <linearGradient id="bg" x1="0" y1="0" x2="1" y2="1">
      <stop offset="0%" stop-color="#581C1C"/>
      <stop offset="100%" stop-color="#991B1B"/>
    </linearGradient>
    <linearGradient id="node" x1="0" y1="0" x2="0" y2="1">
      <stop offset="0%" stop-color="#F59E0B"/>
      <stop offset="100%" stop-color="#FBBF24"/>
    </linearGradient>
  </defs>
  <rect width="1600" height="900" fill="url(#bg)"/>
  <g opacity="0.15" stroke="#FEE2E2" stroke-width="2">
    <circle cx="220" cy="220" r="140"/>
    <circle cx="1400" cy="700" r="180"/>
    <circle cx="1260" cy="180" r="90"/>
  </g>
  <g stroke="#FDE68A" stroke-width="6" stroke-linecap="round" opacity="0.75">
    <line x1="800" y1="250" x2="500" y2="420"/>
    <line x1="800" y1="250" x2="800" y2="420"/>
    <line x1="800" y1="250" x2="1100" y2="420"/>
    <line x1="500" y1="420" x2="380" y2="620"/>
    <line x1="500" y1="420" x2="620" y2="620"/>
    <line x1="800" y1="420" x2="800" y2="620"/>
    <line x1="1100" y1="420" x2="980" y2="620"/>
    <line x1="1100" y1="420" x2="1220" y2="620"/>
  </g>
  <g fill="url(#node)">
    <circle cx="800" cy="250" r="58"/>
    <circle cx="500" cy="420" r="50"/>
    <circle cx="800" cy="420" r="50"/>
    <circle cx="1100" cy="420" r="50"/>
    <circle cx="380" cy="620" r="44"/>
    <circle cx="620" cy="620" r="44"/>
    <circle cx="800" cy="620" r="44"/>
    <circle cx="980" cy="620" r="44"/>
    <circle cx="1220" cy="620" r="44"/>
  </g>
  <g opacity="0.3" fill="#FDE68A">
    <rect x="710" y="140" width="180" height="22" rx="11"/>
    <rect x="705" y="170" width="190" height="14" rx="7"/>
  </g>
</svg>
