<svg width="1200" height="800" viewBox="0 0 1200 800" fill="none" xmlns="http://www.w3.org/2000/svg">
  <defs>
    <linearGradient id="bg" x1="0" y1="0" x2="1" y2="1">
      <stop offset="0%" stop-color="#78350F"/>
      <stop offset="100%" stop-color="#B45309"/>
    </linearGradient>
  </defs>
  <rect width="1200" height="800" fill="url(#bg)"/>
  <g opacity="0.12" stroke="#FFFBEB" stroke-width="2">
    <path d="M0 120H1200"/>
    <path d="M0 240H1200"/>
    <path d="M0 360H1200"/>
    <path d="M0 480H1200"/>
    <path d="M0 600H1200"/>
  </g>
  <rect x="280" y="200" width="640" height="420" rx="28" fill="#FEF3C7"/>
  <rect x="330" y="260" width="540" height="44" rx="10" fill="#B45309"/>
  <rect x="330" y="330" width="260" height="20" rx="10" fill="#D97706"/>
  <rect x="330" y="370" width="480" height="20" rx="10" fill="#D97706"/>
  <rect x="330" y="410" width="440" height="20" rx="10" fill="#D97706"/>
  <rect x="330" y="450" width="500" height="20" rx="10" fill="#D97706"/>
  <rect x="330" y="490" width="300" height="20" rx="10" fill="#D97706"/>
  <circle cx="820" cy="140" r="58" fill="#F59E0B"/>
  <path d="M820 108V172M788 140H852" stroke="#FFFBEB" stroke-width="12" stroke-linecap="round"/>
</svg>
