<svg width="1200" height="800" viewBox="0 0 1200 800" fill="none" xmlns="http://www.w3.org/2000/svg">
  <defs>
    <linearGradient id="bg" x1="0" y1="0" x2="1" y2="1">
      <stop offset="0%" stop-color="#7F1D1D"/>
      <stop offset="100%" stop-color="#B91C1C"/>
    </linearGradient>
  </defs>
  <rect width="1200" height="800" fill="url(#bg)"/>
  <circle cx="600" cy="400" r="250" fill="#F59E0B" fill-opacity="0.18"/>
  <path d="M600 180L820 300V500C820 610 710 700 600 730C490 700 380 610 380 500V300L600 180Z" fill="#FDE68A" fill-opacity="0.85"/>
  <path d="M600 270L730 345V490C730 560 665 625 600 655C535 625 470 560 470 490V345L600 270Z" fill="#991B1B"/>
  <path d="M520 450L575 505L690 390" stroke="#FDE68A" stroke-width="26" stroke-linecap="round" stroke-linejoin="round"/>
  <g opacity="0.4" fill="#FCA5A5">
    <rect x="120" y="170" width="180" height="18" rx="9"/>
    <rect x="900" y="630" width="220" height="18" rx="9"/>
    <rect x="860" y="140" width="150" height="14" rx="7"/>
  </g>
</svg>
